<svg width="494" height="269" viewBox="0 0 494 269" fill="none" xmlns="http://www.w3.org/2000/svg">
<rect x="91.1752" y="40.9896" width="24.1369" height="196.676" transform="rotate(24.3152 91.1752 40.9896)" fill="#4E4E4E"/>
<rect x="160.999" y="135" width="24.1369" height="73.0663" transform="rotate(89.8227 160.999 135)" fill="#4E4E4E"/>
<rect x="123.472" y="47.6934" width="24.1369" height="180" transform="rotate(24.3152 123.472 47.6934)" fill="#4E4E4E"/>
<path d="M122 63.5737L145.224 57L191.943 222.053L168.719 228.627L122 63.5737Z" fill="#4E4E4E"/>
<path d="M166 61.5L66 57V0L172 6L166 61.5Z" fill="#F5F5F5"/>
<path d="M188.075 269L6 264.537V208L199 213.951L188.075 269Z" fill="#F5F5F5"/>
<rect x="216" y="63" width="24" height="151" fill="#4E4E4E"/>
<path d="M243.732 66.9137C249.444 64.1322 255.689 62.6699 261.915 62.6562C268.14 62.6426 274.153 64.078 279.422 66.8354C284.69 69.5928 289.051 73.5871 292.119 78.4643C295.187 83.3416 296.866 88.9514 297.009 94.7967C297.151 100.642 295.752 106.542 292.935 111.975C290.119 117.408 285.972 122.206 280.861 125.944C275.751 129.681 269.835 132.243 263.638 133.403C257.44 134.562 251.153 134.284 245.332 132.591L251.785 116.504C254.869 117.401 258.2 117.549 261.483 116.934C264.766 116.32 267.9 114.963 270.608 112.983C273.315 111.003 275.512 108.461 277.004 105.583C278.496 102.705 279.237 99.5788 279.162 96.4821C279.087 93.3854 278.197 90.4136 276.572 87.8298C274.947 85.246 272.636 83.13 269.845 81.6692C267.054 80.2084 263.868 79.448 260.57 79.4552C257.272 79.4624 253.964 80.2371 250.938 81.7106L243.732 66.9137Z" fill="#4E4E4E"/>
<rect x="333" y="105" width="24" height="109" fill="#4E4E4E"/>
<ellipse cx="345" cy="77" rx="15" ry="16" fill="#4E4E4E"/>
<rect x="340" y="71" width="9" height="10" fill="white"/>
<rect x="414" y="190" width="62" height="24" fill="#4E4E4E"/>
<rect x="400" y="61" width="24" height="153" fill="#4E4E4E"/>
<rect x="0.5" y="217.5" width="493" height="23" fill="#4E4E4E" stroke="#FFFCFC"/>
<path d="M92.5034 253.208H85.3754L83.9834 257H80.8154L87.1514 240.296H90.8474L97.1834 257H93.8954L92.5034 253.208ZM91.5194 250.52L88.9514 243.416L86.3594 250.52H91.5194ZM123.757 244.208C124.701 244.208 125.533 244.48 126.253 245.024C126.989 245.552 127.557 246.304 127.957 247.28C128.373 248.24 128.581 249.352 128.581 250.616C128.581 251.864 128.341 253 127.861 254.024C127.381 255.032 126.717 255.832 125.869 256.424C125.037 257 124.093 257.288 123.037 257.288C121.757 257.288 120.621 257.024 119.629 256.496V262.568H116.461V247.256L115.933 244.472H118.837L119.341 246.248C119.917 245.592 120.589 245.088 121.357 244.736C122.125 244.384 122.925 244.208 123.757 244.208ZM122.389 254.672C124.293 254.672 125.245 253.336 125.245 250.664C125.245 249.432 125.053 248.48 124.669 247.808C124.301 247.136 123.757 246.8 123.037 246.8C121.885 246.8 120.749 247.36 119.629 248.48V254.288C120.653 254.544 121.573 254.672 122.389 254.672ZM149.957 242.6C149.413 242.6 148.949 242.416 148.565 242.048C148.181 241.68 147.989 241.2 147.989 240.608C147.989 240.016 148.181 239.536 148.565 239.168C148.949 238.8 149.413 238.616 149.957 238.616C150.501 238.616 150.965 238.8 151.349 239.168C151.733 239.536 151.925 240.016 151.925 240.608C151.925 241.2 151.733 241.68 151.349 242.048C150.965 242.416 150.501 242.6 149.957 242.6ZM151.541 244.472V257H148.373V244.496L151.541 244.472ZM172.475 240.296H175.643V254.216H182.675V257H172.475V240.296ZM249.89 240.296H253.058V254.216H260.09V257H249.89V240.296ZM287.812 257L287.5 255.488C286.364 256.688 284.996 257.288 283.396 257.288C282.132 257.288 281.1 256.96 280.3 256.304C279.516 255.648 279.124 254.784 279.124 253.712C279.124 252.32 279.636 251.24 280.66 250.472C281.7 249.688 283.196 249.296 285.148 249.296C285.852 249.296 286.556 249.328 287.26 249.392V248.936C287.26 248.232 287.06 247.712 286.66 247.376C286.26 247.024 285.628 246.848 284.764 246.848C283.916 246.848 283.124 246.992 282.388 247.28C281.668 247.552 280.884 248 280.036 248.624V245.792C280.772 245.232 281.54 244.824 282.34 244.568C283.14 244.312 284.02 244.184 284.98 244.184C286.756 244.184 288.108 244.568 289.036 245.336C289.98 246.088 290.452 247.192 290.452 248.648V254.216L290.98 257H287.812ZM282.292 253.472C282.292 254.4 282.82 254.864 283.876 254.864C284.484 254.864 285.06 254.744 285.604 254.504C286.148 254.248 286.7 253.848 287.26 253.304V251.6H284.956C284.028 251.6 283.348 251.736 282.916 252.008C282.5 252.28 282.292 252.768 282.292 253.472ZM325.062 244.184C326.262 244.184 327.222 244.56 327.942 245.312C328.678 246.048 329.046 247.024 329.046 248.24V257H325.878V250.04C325.878 248.952 325.734 248.176 325.446 247.712C325.158 247.232 324.678 246.992 324.006 246.992C323.19 246.992 322.35 247.448 321.486 248.36V257H318.318V250.04C318.318 248.952 318.174 248.176 317.886 247.712C317.598 247.232 317.118 246.992 316.446 246.992C315.63 246.992 314.79 247.448 313.926 248.36V257H310.758V247.256L310.23 244.472H313.134L313.59 246.08C314.23 245.408 314.862 244.928 315.486 244.64C316.11 244.336 316.782 244.184 317.502 244.184C318.302 244.184 319.006 244.368 319.614 244.736C320.238 245.088 320.71 245.576 321.03 246.2C321.702 245.48 322.35 244.968 322.974 244.664C323.614 244.344 324.31 244.184 325.062 244.184ZM353.656 257.288C352.824 257.288 352.008 257.176 351.208 256.952C350.408 256.712 349.656 256.376 348.952 255.944V252.944C349.72 253.52 350.448 253.944 351.136 254.216C351.824 254.488 352.568 254.624 353.368 254.624C354.184 254.624 354.784 254.52 355.168 254.312C355.568 254.104 355.768 253.784 355.768 253.352C355.768 252.936 355.576 252.632 355.192 252.44C354.824 252.232 354.232 252.032 353.416 251.84C352.52 251.616 351.792 251.392 351.232 251.168C350.672 250.928 350.184 250.544 349.768 250.016C349.368 249.488 349.168 248.776 349.168 247.88C349.168 246.76 349.624 245.864 350.536 245.192C351.464 244.52 352.704 244.184 354.256 244.184C355.008 244.184 355.704 244.272 356.344 244.448C356.984 244.608 357.64 244.88 358.312 245.264V248.192C357.624 247.712 356.984 247.368 356.392 247.16C355.8 246.952 355.168 246.848 354.496 246.848C353.76 246.848 353.192 246.944 352.792 247.136C352.392 247.312 352.192 247.576 352.192 247.928C352.192 248.28 352.36 248.544 352.696 248.72C353.048 248.88 353.6 249.048 354.352 249.224C355.248 249.416 355.992 249.64 356.584 249.896C357.192 250.136 357.712 250.536 358.144 251.096C358.576 251.64 358.792 252.4 358.792 253.376C358.792 254.128 358.576 254.808 358.144 255.416C357.712 256.008 357.104 256.472 356.32 256.808C355.536 257.128 354.648 257.288 353.656 257.288ZM386.344 257L386.032 255.488C384.896 256.688 383.528 257.288 381.928 257.288C380.664 257.288 379.632 256.96 378.832 256.304C378.048 255.648 377.656 254.784 377.656 253.712C377.656 252.32 378.168 251.24 379.192 250.472C380.232 249.688 381.728 249.296 383.68 249.296C384.384 249.296 385.088 249.328 385.792 249.392V248.936C385.792 248.232 385.592 247.712 385.192 247.376C384.792 247.024 384.16 246.848 383.296 246.848C382.448 246.848 381.656 246.992 380.92 247.28C380.2 247.552 379.416 248 378.568 248.624V245.792C379.304 245.232 380.072 244.824 380.872 244.568C381.672 244.312 382.552 244.184 383.512 244.184C385.288 244.184 386.64 244.568 387.568 245.336C388.512 246.088 388.984 247.192 388.984 248.648V254.216L389.512 257H386.344ZM380.824 253.472C380.824 254.4 381.352 254.864 382.408 254.864C383.016 254.864 383.592 254.744 384.136 254.504C384.68 254.248 385.232 253.848 385.792 253.304V251.6H383.488C382.56 251.6 381.88 251.736 381.448 252.008C381.032 252.28 380.824 252.768 380.824 253.472ZM408.93 238.904H412.098V257H408.93V238.904Z" fill="black"/>
</svg>
